<?xml version="1.0" encoding="utf-8"?>
<!-- Generator: Adobe Illustrator 18.0.0, SVG Export Plug-In . SVG Version: 6.00 Build 0)  -->
<!DOCTYPE svg PUBLIC "-//W3C//DTD SVG 1.1//EN" "http://www.w3.org/Graphics/SVG/1.1/DTD/svg11.dtd">
<svg version="1.1" id="Layer_1" xmlns="http://www.w3.org/2000/svg" xmlns:xlink="http://www.w3.org/1999/xlink" x="0px" y="0px"
	 viewBox="0 0 389.7 125.6" enable-background="new 0 0 389.7 125.6" xml:space="preserve">
<g>
	<g>
		<defs>
			<path id="SVGID_1_" d="M183.8,0c-19.7,0-40.3,0.7-61.7,2C88.7,4.1,60.9,8,61.6,8.1c0.4,0.2,0.9,0.3,1.3,0.5
				c0.6,0.2,27.6-3,58.9-4.8c221-12.9,355.5,51.3,137.9,101.1c-16.7,3.8-34.4,7.4-50.6,11.2c-3.7,0.9-9.6,2-10.4,3.2
				c-0.8,1.1,2.4,3.4,10,2.6c5.6-0.6,10.9-1.4,15.9-2.1c16.3-2.5,31.3-5.4,44.8-8.6C484.4,61.7,383,0.4,187.1,0H183.8z"/>
		</defs>
		<clipPath id="SVGID_2_">
			<use href="#SVGID_1_"  overflow="visible"/>
		</clipPath>
		
			<linearGradient id="SVGID_3_" gradientUnits="userSpaceOnUse" x1="-1020.7305" y1="337.6115" x2="-1017.3296" y2="337.6115" gradientTransform="matrix(11.8621 10.4243 10.4243 -11.8621 8833.3486 14677.4424)">
			<stop  offset="0" style="stop-color:#F6921E"/>
			<stop  offset="1" style="stop-color:#9C1521"/>
		</linearGradient>
		<polygon clip-path="url(#SVGID_2_)" fill="url(#SVGID_3_)" points="245.4,-219.1 549.7,48.3 299.8,332.6 -4.4,65.2 		"/>
	</g>
	<g>
		<defs>
			<path id="SVGID_4_" d="M121.6,4.5C90.9,6.2,65.2,9.6,65.8,9.7c0.4,0.2,0.9,0.3,1.3,0.5c0.6,0.2,25.6-2.5,54.1-4
				c200.9-10.4,315.7,46.9,125,90c-14.4,3.3-29.7,6.4-43.6,9.7c-3.9,0.9-8,1.9-10.4,3c-2.1,1-1.6,3.2,4.5,3.4
				c3.5,0.1,10.1-0.9,13-1.3c17.2-2.2,32.7-5.3,46.4-8.4c192.2-43.9,101-99.7-80.6-99.7C158.3,2.9,140.3,3.4,121.6,4.5"/>
		</defs>
		<clipPath id="SVGID_5_">
			<use href="#SVGID_4_"  overflow="visible"/>
		</clipPath>
		
			<linearGradient id="SVGID_6_" gradientUnits="userSpaceOnUse" x1="-1020.731" y1="337.214" x2="-1017.3301" y2="337.214" gradientTransform="matrix(11.8619 10.4242 10.4242 -11.8619 8831.7979 14678.9326)">
			<stop  offset="0" style="stop-color:#F6921E"/>
			<stop  offset="1" style="stop-color:#9C1521"/>
		</linearGradient>
		<polygon clip-path="url(#SVGID_5_)" fill="url(#SVGID_6_)" points="232.1,-194.1 506.1,46.6 281.4,302.4 7.4,61.6 		"/>
	</g>
	<g>
		<defs>
			<path id="SVGID_7_" d="M121.1,7c-27.9,1.4-51.5,4.3-50.9,4.4c0.4,0.2,0.9,0.3,1.3,0.5c0.6,0.2,23.4-2,49.1-3.1
				c180.5-7.9,275,42.4,111.7,78.5c-12.7,2.8-26.3,5.5-38.2,8.5c-3.4,0.8-7.8,1.9-9,2.9c-1.2,1-0.1,2.9,5.3,3.1
				c3.7,0.1,9.2-0.7,12.4-1.1c14.6-1.8,27.9-4.3,39.4-7c168.5-37.9,89.1-87.9-77-87.9C151.2,5.9,136.4,6.2,121.1,7"/>
		</defs>
		<clipPath id="SVGID_8_">
			<use href="#SVGID_7_"  overflow="visible"/>
		</clipPath>
		
			<linearGradient id="SVGID_9_" gradientUnits="userSpaceOnUse" x1="-1020.7322" y1="336.7951" x2="-1017.3313" y2="336.7951" gradientTransform="matrix(11.8617 10.424 10.424 -11.8617 8830.1777 14680.376)">
			<stop  offset="0" style="stop-color:#F6921E"/>
			<stop  offset="1" style="stop-color:#9C1521"/>
		</linearGradient>
		<polygon clip-path="url(#SVGID_8_)" fill="url(#SVGID_9_)" points="218.2,-168.3 460.8,44.9 262.1,271.1 19.5,57.9 		"/>
	</g>
	<g>
		<defs>
			<path id="SVGID_10_" d="M120.5,9.4c-25.2,1-46.7,3.4-46.1,3.6c0.4,0.2,0.9,0.3,1.3,0.5c0.6,0.2,21.4-1.5,44.3-2.3
				C281,5.7,355.8,49.3,218.7,78.6c-12.5,2.7-27.1,5.3-37.1,8.3c-5.7,1.8-1.2,5.3,10.9,4.1c13.5-1.4,25.9-3.6,36.2-5.9
				c145.7-32,78.1-76.3-73.6-76.3c-0.1,0-0.1,0-0.2,0C143.9,8.7,132.4,8.9,120.5,9.4"/>
		</defs>
		<clipPath id="SVGID_11_">
			<use href="#SVGID_10_"  overflow="visible"/>
		</clipPath>
		
			<linearGradient id="SVGID_12_" gradientUnits="userSpaceOnUse" x1="-1020.7307" y1="336.3805" x2="-1017.3298" y2="336.3805" gradientTransform="matrix(11.862 10.4242 10.4242 -11.862 8828.9316 14682.3828)">
			<stop  offset="0" style="stop-color:#F6921E"/>
			<stop  offset="1" style="stop-color:#9C1521"/>
		</linearGradient>
		<polygon clip-path="url(#SVGID_11_)" fill="url(#SVGID_12_)" points="204.8,-143.4 417.3,43.4 243.4,241.2 30.9,54.5 		"/>
	</g>
	<g>
		<defs>
			<path id="SVGID_13_" d="M120,11.9c-22.5,0.7-41.9,2.6-41.3,2.8c0.5,0.2,0.9,0.3,1.3,0.5c0.6,0.2,19.3-1.1,39.5-1.5
				c141.4-3.2,196.7,33.8,85.3,56.1c-9.1,1.9-19,3.7-26.6,5.8c-4.1,1.1-7.4,2.8-5.5,4c2.7,1.8,6.8,1.9,15.6,1
				c9.9-1,18.9-2.6,26.7-4.2c123.2-26,67.6-64.8-70.4-64.8C136.7,11.5,128.5,11.6,120,11.9"/>
		</defs>
		<clipPath id="SVGID_14_">
			<use href="#SVGID_13_"  overflow="visible"/>
		</clipPath>
		
			<linearGradient id="SVGID_15_" gradientUnits="userSpaceOnUse" x1="-1020.7294" y1="335.9961" x2="-1017.3286" y2="335.9961" gradientTransform="matrix(11.8623 10.4245 10.4245 -11.8623 8827.6631 14684.3301)">
			<stop  offset="0" style="stop-color:#F6921E"/>
			<stop  offset="1" style="stop-color:#9C1521"/>
		</linearGradient>
		<polygon clip-path="url(#SVGID_14_)" fill="url(#SVGID_15_)" points="191.5,-118.5 373.4,41.4 224.9,210.3 42.9,50.5 		"/>
	</g>
	<g>
		<defs>
			<path id="SVGID_16_" d="M119.5,14.3c-19.8,0.4-37.1,1.8-36.5,1.9c0.4,0.2,0.9,0.3,1.3,0.5c0.6,0.2,17.2-0.6,34.8-0.6
				C241.3,15.2,277,45.5,191,60.8c-7.9,1.4-21.1,3.4-23.7,5.6c-1.6,1.4-2.7,4.3,6.9,4.2c9.3-0.1,20.2-1.9,27-3.2
				c101-19.8,57.8-53.2-67.8-53.2C128.9,14.2,124.2,14.2,119.5,14.3"/>
		</defs>
		<clipPath id="SVGID_17_">
			<use href="#SVGID_16_"  overflow="visible"/>
		</clipPath>
		
			<linearGradient id="SVGID_18_" gradientUnits="userSpaceOnUse" x1="-1020.7302" y1="335.6337" x2="-1017.3293" y2="335.6337" gradientTransform="matrix(11.8621 10.4243 10.4243 -11.8621 8826.1084 14685.7275)">
			<stop  offset="0" style="stop-color:#F6921E"/>
			<stop  offset="1" style="stop-color:#9C1521"/>
		</linearGradient>
		<polygon clip-path="url(#SVGID_17_)" fill="url(#SVGID_18_)" points="178.1,-94.8 330.2,38.8 206.4,179.7 54.3,46 		"/>
	</g>
	<g>
		<defs>
			<path id="SVGID_19_" d="M118.9,16.8c-17,0-32.2,0.9-31.6,1.1c0.4,0.2,0.9,0.3,1.3,0.5c0.3,0.1,3.5,0.1,8.3,0.1
				c5.7,0,13.6,0,21.6,0.1c102.6,1.5,118.2,25.1,58,33c-7.7,1-14.7,2.3-17.6,4.1c-2.3,1.4-0.1,3.4,5.7,4c6.5,0.7,16.4-0.4,22.2-1.4
				c78.3-13.1,48.8-41.4-66.7-41.4C119.8,16.8,119.3,16.8,118.9,16.8"/>
		</defs>
		<clipPath id="SVGID_20_">
			<use href="#SVGID_19_"  overflow="visible"/>
		</clipPath>
		
			<linearGradient id="SVGID_21_" gradientUnits="userSpaceOnUse" x1="-1020.7306" y1="335.2744" x2="-1017.3297" y2="335.2744" gradientTransform="matrix(11.8621 10.4243 10.4243 -11.8621 8824.6475 14687.3184)">
			<stop  offset="0" style="stop-color:#F6921E"/>
			<stop  offset="1" style="stop-color:#9C1521"/>
		</linearGradient>
		<polygon clip-path="url(#SVGID_20_)" fill="url(#SVGID_21_)" points="164.5,-71.7 286.7,35.7 187.4,148.8 65.2,41.3 		"/>
	</g>
	<g>
		<defs>
			<path id="SVGID_22_" d="M91.6,19.5c0.4,0.2,0.9,0.3,1.3,0.5c0.6,0.2,13,0.4,25.1,1c33.5,1.6,70.1,6.4,68.2,14.9
				c-0.4,1.6-2.4,3.3-7.6,4.7c-5.9,1.6-16,1.7-22.6,3.1c-6.5,1.4-5.9,3.2-1.7,4.4c3.9,1.2,10.9,1.9,18.6,1
				c53.6-6,43.2-27.9-54.5-29.9c-3.5-0.1-6.9-0.1-10.1-0.1C98.5,19.1,91.1,19.4,91.6,19.5"/>
		</defs>
		<clipPath id="SVGID_23_">
			<use href="#SVGID_22_"  overflow="visible"/>
		</clipPath>
		
			<linearGradient id="SVGID_24_" gradientUnits="userSpaceOnUse" x1="-1020.731" y1="334.8788" x2="-1017.3301" y2="334.8788" gradientTransform="matrix(11.8619 10.4242 10.4242 -11.8619 8823.1572 14688.7646)">
			<stop  offset="0" style="stop-color:#F6921E"/>
			<stop  offset="1" style="stop-color:#9C1521"/>
		</linearGradient>
		<polygon clip-path="url(#SVGID_23_)" fill="url(#SVGID_24_)" points="150.1,-48 241.8,32.6 167.5,117.1 75.8,36.5 		"/>
	</g>
	<g>
		<defs>
			<path id="SVGID_25_" d="M95.8,21.1c0.4,0.2,0.9,0.3,1.3,0.5c0.6,0.2,10.9,0.9,20.3,1.8c13.5,1.3,27,2.9,35.9,5.4
				c4.8,1.4,16.9,5.5,1.8,6.7c-5.2,0.4-7.6,0.8-8.1,2c-0.4,1.1,2.5,2.5,5.8,3.2c5.5,1.1,16.3-0.7,20.8-1.8c10.4-2.6,5.8-6.5,0.6-8.7
				c-10.6-4.6-33-7.3-56.4-8.5c-8.1-0.4-15.9-0.6-19.7-0.6C96.5,21,95.6,21,95.8,21.1"/>
		</defs>
		<clipPath id="SVGID_26_">
			<use href="#SVGID_25_"  overflow="visible"/>
		</clipPath>
		
			<linearGradient id="SVGID_27_" gradientUnits="userSpaceOnUse" x1="-1020.7285" y1="334.3702" x2="-1017.3276" y2="334.3702" gradientTransform="matrix(11.8624 10.4246 10.4246 -11.8624 8822.1055 14690.9404)">
			<stop  offset="0" style="stop-color:#F6921E"/>
			<stop  offset="1" style="stop-color:#BE1E2D"/>
		</linearGradient>
		<polygon clip-path="url(#SVGID_26_)" fill="url(#SVGID_27_)" points="134.2,-22.8 194.4,30.1 145.5,85.6 85.3,32.7 		"/>
	</g>
	<path fill="#9C1521" d="M11.3,38.8C4.6,38.8,0,34.5,0,28.3V4.1h6.3v24.2c0,3.7,2.4,5.7,5.2,5.7c2.9,0,5.2-2,5.2-5.7V4.1h5.9v24.2
		C22.6,34.5,18,38.8,11.3,38.8"/>
	<polyline fill="#9C1521" points="43.3,38.2 33.5,21 33.4,21 33.4,38.2 27.1,38.2 27.1,4.1 33.4,4.1 33.4,19.7 33.5,19.7 43.3,4.1 
		49.8,4.1 39.1,19.9 50.4,38.2 	"/>
	<path fill="#9C1521" d="M7.5,68.5l-1.3-0.1v13.5H0V49.2c2.2-1.1,5.5-1.9,9.4-1.9c8.8,0,12.5,4.6,12.5,10.6
		C21.9,64.1,17.7,69.3,7.5,68.5 M9.3,50.9c-1.5,0-2.6,0.3-3.2,0.5v13.3l1.3,0.1c6.2,0.5,8.4-2.2,8.4-7C15.9,53.2,14,50.9,9.3,50.9"
		/>
	<path fill="#9C1521" d="M33.9,82.4c-7.5,0-11.1-6-11.1-13.9c0-8,3.6-13.9,11.1-13.9c7.5,0,11.1,5.9,11.1,13.9
		C45,76.5,41.4,82.4,33.9,82.4 M33.9,58.5c-4.3,0-5.1,4.9-5.1,10c0,5.1,0.9,9.8,5.1,9.8c4.3,0,5.1-4.7,5.1-9.8
		C39,63.4,38.2,58.5,33.9,58.5"/>
	<path fill="#9C1521" d="M74.4,81.9H69l-4.6-16.8c-0.5-1.7-0.5-3.4-0.5-3.4h-0.1c0,0-0.1,1.7-0.6,3.4l-4.7,16.8h-5.5l-7.5-26.8h6.1
		l3.9,17.3C56,74.5,56,76,56,76h0.1c0,0,0.1-1.5,0.7-3.5l4.7-17.3h5.1l4.5,17.3c0.4,1.7,0.6,3.5,0.6,3.5h0.1c0,0,0.1-1.8,0.5-3.6
		l4.1-17.3h5.4"/>
	<path fill="#9C1521" d="M88,70.8c0.5,5,2.9,7.5,7.3,7.5c3.1,0,5.3-0.7,6.8-1.5l1.4,3.8c-1.9,1-4.8,1.9-8.8,1.9
		c-7.6,0-12.4-4.9-12.4-14c0-8.7,4.4-13.8,11.4-13.8c7.1,0,11,4.7,10.7,13.7 M93.5,58.4c-3.5,0-6,2.9-5.8,9.3L98.7,66
		C98.7,60.6,96.8,58.4,93.5,58.4"/>
	<path fill="#9C1521" d="M119,59.1c-2-0.7-4.3-0.6-5.7,0.2v22.6h-6.1V56.6c2.8-1.3,6.2-2.1,12.9-1.9"/>
	<path fill="#9C1521" d="M20.2,125.6l-13-22.1c-1.1-1.9-2-3.8-2-3.8H5.1c0,0,0.2,1.9,0.2,4v21.9H0V91.5h6l12.2,20.8
		c1.1,1.9,1.8,3.5,1.8,3.5h0.1c0,0-0.1-1.6-0.1-3.6V91.5h5.3v34.2"/>
	<path fill="#9C1521" d="M34.2,114.5c0.5,5,2.9,7.5,7.3,7.5c3.1,0,5.3-0.7,6.8-1.5l1.4,3.8c-1.9,1-4.8,1.9-8.8,1.9
		c-7.6,0-12.4-4.9-12.4-14c0-8.7,4.4-13.8,11.4-13.8c7.1,0,11,4.7,10.7,13.7 M39.6,102.1c-3.5,0-6,2.9-5.8,9.3l11.1-1.7
		C44.9,104.3,43,102.1,39.6,102.1"/>
	<path fill="#9C1521" d="M62,125.9c-5.3,0-7.4-3.5-7.4-7.3v-15.9h-3v-3.9h3v-5.9l6.1-1.7v7.6h4.4v3.9h-4.4v15.7
		c0,2.1,0.8,3.5,2.9,3.5c0.5,0,0.9-0.1,1.4-0.2v3.8C64.6,125.6,63.5,125.9,62,125.9"/>
	<path fill="#9C1521" d="M94.7,125.6h-5.5l-4.6-16.8c-0.5-1.7-0.5-3.4-0.5-3.4H84c0,0-0.1,1.7-0.6,3.4l-4.7,16.8h-5.5l-7.5-26.8h6.1
		l3.9,17.3c0.4,2,0.5,3.5,0.5,3.5h0.1c0,0,0.1-1.5,0.7-3.5l4.7-17.3h5.1l4.5,17.3c0.4,1.7,0.6,3.5,0.6,3.5h0.1c0,0,0.1-1.8,0.5-3.6
		l4.1-17.3h5.4"/>
	<path fill="#9C1521" d="M113.6,126.1c-7.5,0-11.1-6-11.1-13.9c0-8,3.6-13.9,11.1-13.9c7.5,0,11.1,5.9,11.1,13.9
		C124.8,120.2,121.1,126.1,113.6,126.1 M113.6,102.2c-4.3,0-5.1,4.9-5.1,10c0,5.1,0.9,9.8,5.1,9.8c4.3,0,5.1-4.7,5.1-9.8
		C118.8,107.1,118,102.2,113.6,102.2"/>
	<path fill="#9C1521" d="M139.4,102.8c-2-0.7-4.3-0.6-5.7,0.2v22.6h-6.1v-25.3c2.8-1.3,6.2-2.1,12.9-1.9"/>
	<polyline fill="#9C1521" points="157.2,125.6 148.3,112 148.2,112 148.2,125.6 142.2,125.6 142.2,86.6 148.2,86.6 148.2,111 
		148.3,111 156.8,98.9 162.9,98.9 153.7,111.1 164,125.6 	"/>
	<path fill="#9C1521" d="M172,126.1c-3.1,0-5.8-0.8-7.4-1.9l1.6-3.9c1,0.8,2.8,1.5,5,1.5c2.5,0,4.1-1.6,4.1-3.8
		c0-2.3-1.2-3.4-3.9-4.4c-5.1-1.9-6.1-4.7-6.1-7.5c0-4.3,3.4-7.8,8.5-7.8c3,0,5.2,0.7,7,1.9l-1.5,3.5c-0.8-0.6-2.4-1.5-4.3-1.5
		c-2.5,0-3.8,1.6-3.8,3.5c0,2.2,1.6,3.3,4,4.2c5.2,2.1,6.4,4.8,6.4,7.9C181.6,122.3,177.9,126.1,172,126.1"/>
</g>
</svg>
